<svg width="20" height="20" viewBox="0 0 20 20" fill="none" xmlns="http://www.w3.org/2000/svg">
<path fill-rule="evenodd" clip-rule="evenodd" d="M18.5792 5.2583C18.6548 5.29062 18.7232 5.33753 18.7807 5.39634C18.8381 5.45515 18.8833 5.52471 18.9138 5.60103C18.9443 5.67735 18.9595 5.75894 18.9584 5.84112C18.9573 5.9233 18.94 6.00447 18.9076 6.07997L18.3334 5.8333L18.9084 6.07997L18.9067 6.0833L18.9042 6.08913L18.8959 6.10913L18.8634 6.17913C18.6816 6.5568 18.4793 6.92429 18.2576 7.27997C17.813 7.9949 17.2976 8.66327 16.7192 9.27497L17.5259 10.0825C17.6363 10.2009 17.6964 10.3577 17.6935 10.5196C17.6907 10.6815 17.6251 10.836 17.5106 10.9505C17.3961 11.065 17.2416 11.1306 17.0797 11.1334C16.9177 11.1363 16.761 11.0762 16.6426 10.9658L15.8084 10.1325C15.2281 10.6216 14.592 11.0403 13.9134 11.38L14.6917 12.5758C14.7821 12.7148 14.8136 12.8841 14.7792 13.0463C14.7448 13.2085 14.6474 13.3504 14.5084 13.4408C14.3694 13.5312 14.2001 13.5627 14.0379 13.5283C13.8757 13.4939 13.7338 13.3965 13.6434 13.2575L12.7359 11.8625C12.0859 12.075 11.3834 12.2191 10.6259 12.2708V13.75C10.6259 13.9157 10.56 14.0747 10.4428 14.1919C10.3256 14.3091 10.1667 14.375 10.0009 14.375C9.83513 14.375 9.67616 14.3091 9.55895 14.1919C9.44174 14.0747 9.37589 13.9157 9.37589 13.75V12.2708C8.67947 12.2239 7.99121 12.0935 7.32589 11.8825L6.43089 13.2575C6.38613 13.3263 6.32825 13.3856 6.26056 13.4321C6.19287 13.4786 6.11668 13.5113 6.03636 13.5283C5.95604 13.5453 5.87315 13.5463 5.79243 13.5313C5.7117 13.5163 5.63473 13.4856 5.56589 13.4408C5.42687 13.3504 5.32946 13.2085 5.29508 13.0463C5.27805 12.9659 5.27702 12.8831 5.29203 12.8023C5.30704 12.7216 5.3378 12.6446 5.38256 12.5758L6.14339 11.4075C5.45934 11.071 4.81786 10.6542 4.23256 10.1658L3.43256 10.9658C3.31474 11.0797 3.15689 11.1428 2.99301 11.1414C2.82914 11.1401 2.67235 11.0744 2.55641 10.9586C2.44048 10.8428 2.37468 10.686 2.37317 10.5222C2.37167 10.3583 2.4346 10.2004 2.54839 10.0825L3.31839 9.31247C2.50005 8.4549 1.80758 7.48551 1.26172 6.4333C1.20707 6.32672 1.15483 6.21891 1.10506 6.10997L1.09672 6.08913L1.09339 6.0833V6.0808H1.09172C1.0263 5.92841 1.0241 5.75544 1.0856 5.60143C1.14709 5.44741 1.26725 5.32414 1.41964 5.25872C1.57203 5.1933 1.74417 5.19109 1.89818 5.25259C2.05219 5.31408 2.17547 5.43424 2.24089 5.58663V5.5883L2.24672 5.59997L2.27089 5.65247C2.43356 5.98897 2.61438 6.3164 2.81256 6.6333C3.20839 7.26663 3.81006 8.08913 4.62922 8.85163C5.35172 9.52247 6.23589 10.14 7.29339 10.5466C8.15721 10.8777 9.07498 11.0455 10.0001 11.0416C10.9444 11.0457 11.8809 10.8707 12.7601 10.5258C13.8117 10.1116 14.6901 9.48997 15.4059 8.8183C16.3629 7.90951 17.15 6.83712 17.7301 5.65163L17.7534 5.59913L17.7584 5.5883M18.5792 5.2583C18.4269 5.19322 18.255 5.19207 18.1013 5.25363C17.9475 5.3152 17.8245 5.43526 17.7592 5.58747L18.5792 5.2583Z" fill="black"/>
</svg>
