<svg width="20" height="20" viewBox="0 0 20 20" fill="none" xmlns="http://www.w3.org/2000/svg">
<path fill-rule="evenodd" clip-rule="evenodd" d="M10 6.875C9.1712 6.875 8.37634 7.20424 7.79029 7.79029C7.20424 8.37634 6.875 9.1712 6.875 10C6.875 10.8288 7.20424 11.6237 7.79029 12.2097C8.37634 12.7958 9.1712 13.125 10 13.125C10.8288 13.125 11.6237 12.7958 12.2097 12.2097C12.7958 11.6237 13.125 10.8288 13.125 10C13.125 9.1712 12.7958 8.37634 12.2097 7.79029C11.6237 7.20424 10.8288 6.875 10 6.875ZM8.125 10C8.125 9.50272 8.32254 9.02581 8.67417 8.67417C9.02581 8.32254 9.50272 8.125 10 8.125C10.4973 8.125 10.9742 8.32254 11.3258 8.67417C11.6775 9.02581 11.875 9.50272 11.875 10C11.875 10.4973 11.6775 10.9742 11.3258 11.3258C10.9742 11.6775 10.4973 11.875 10 11.875C9.50272 11.875 9.02581 11.6775 8.67417 11.3258C8.32254 10.9742 8.125 10.4973 8.125 10Z" fill="black"/>
<path fill-rule="evenodd" clip-rule="evenodd" d="M10 2.70831C6.23833 2.70831 3.70417 4.96165 2.23333 6.87248L2.2075 6.90665C1.87417 7.33915 1.56833 7.73665 1.36083 8.20665C1.13833 8.71081 1.04167 9.25998 1.04167 9.99998C1.04167 10.74 1.13833 11.2891 1.36083 11.7933C1.56917 12.2633 1.875 12.6616 2.2075 13.0933L2.23417 13.1275C3.70417 15.0383 6.23833 17.2916 10 17.2916C13.7617 17.2916 16.2958 15.0383 17.7667 13.1275L17.7925 13.0933C18.1258 12.6616 18.4317 12.2633 18.6392 11.7933C18.8617 11.2891 18.9583 10.74 18.9583 9.99998C18.9583 9.25998 18.8617 8.71081 18.6392 8.20665C18.4308 7.73665 18.125 7.33915 17.7925 6.90665L17.7658 6.87248C16.2958 4.96165 13.7617 2.70831 10 2.70831ZM3.225 7.63498C4.58167 5.87081 6.79167 3.95831 10 3.95831C13.2083 3.95831 15.4175 5.87081 16.775 7.63498C17.1417 8.10998 17.355 8.39331 17.4958 8.71165C17.6275 9.00998 17.7083 9.37415 17.7083 9.99998C17.7083 10.6258 17.6275 10.99 17.4958 11.2883C17.355 11.6066 17.1408 11.89 16.7758 12.365C15.4167 14.1291 13.2083 16.0416 10 16.0416C6.79167 16.0416 4.5825 14.1291 3.225 12.365C2.85833 11.89 2.645 11.6066 2.50417 11.2883C2.3725 10.99 2.29167 10.6258 2.29167 9.99998C2.29167 9.37415 2.3725 9.00998 2.50417 8.71165C2.645 8.39331 2.86 8.10998 3.225 7.63498Z" fill="black"/>
</svg>
