<svg width="148" height="148" viewBox="0 0 148 148" fill="none" xmlns="http://www.w3.org/2000/svg">
<rect width="148" height="148" rx="74" fill="#179FA1"/>
<path d="M49.9219 107.347C48.3405 107.347 47.0518 106.967 46.0561 106.205C45.1189 105.444 44.3574 104.243 43.7717 102.603L25.4089 50.6774C24.7646 48.803 24.8817 47.2215 25.7603 45.9329C26.6975 44.6443 28.2497 44 30.4169 44C31.9984 44 33.2285 44.3807 34.1071 45.1422C34.9857 45.8451 35.6886 46.9873 36.2157 48.5687L52.0306 95.4862H48.5162L65.0339 48.6566C65.6197 47.0751 66.3518 45.9036 67.2304 45.1422C68.109 44.3807 69.2512 44 70.657 44C72.0628 44 73.1757 44.3807 73.9957 45.1422C74.8157 45.9036 75.5186 47.1044 76.1043 48.7445L92.0949 95.4862H89.0198L105.098 48.5687C105.625 47.0458 106.328 45.9036 107.207 45.1422C108.086 44.3807 109.286 44 110.809 44C112.684 44 114.06 44.6443 114.939 45.9329C115.817 47.2215 115.934 48.803 115.29 50.6774L96.7515 102.691C96.1658 104.272 95.4043 105.444 94.4672 106.205C93.53 106.967 92.2707 107.347 90.6892 107.347C89.1077 107.347 87.8483 106.967 86.9112 106.205C85.974 105.444 85.2125 104.243 84.6268 102.603L69.3391 59.0241H71.3599L55.8964 102.691C55.3107 104.272 54.5493 105.444 53.6121 106.205C52.7335 106.967 51.5034 107.347 49.9219 107.347Z" fill="white"/>
<rect x="89.1549" y="65.0394" width="30.8451" height="8.96661" rx="4.4833" fill="white"/>
<rect x="85.9269" y="98.3952" width="30.8451" height="8.96661" rx="4.4833" fill="white"/>
</svg>
